<?xml version="1.0" encoding="UTF-8"?>
<svg id="Layer_1" data-name="Layer 1" xmlns="http://www.w3.org/2000/svg" viewBox="0 0 465.77 478.78">
  <defs>
    <style>
      .cls-1 {
        fill: #ffa704;
      }
    </style>
  </defs>
  <path class="cls-1" d="m217.93,478.78c-12.4-2.15-24.8-4.29-36.57-9.05-45.34-18.32-75.62-50.61-88.87-97.77-11.91-42.39-5.16-82.62,19.11-119.11,23.97-36.04,58.04-57.78,101.09-63.63,47.38-6.44,88.78,7.59,122.87,40.95,25.47,24.93,40.17,55.71,42.33,91.53,3.68,61.25-21.9,107.43-74.11,138.94-16.15,9.75-34.06,15.08-52.8,17.45-1.07.13-2.11.46-3.17.69h-29.89Zm8.67-109.74c0,7.31-.03,14.63.02,21.94.02,2.57-.67,4.26-3.68,4.01-9.96-.83-18.65-3.81-23.13-13.78-1.78-3.97-3.2-8.1-5.06-12.03-3.44-7.29-11.21-10.39-19.27-7.91-7.09,2.18-10.5,8.36-9.35,16.59,1.58,11.28,7.5,19.94,16.18,26.88,11.37,9.1,24.8,12.76,38.97,13.81,4.44.33,5.69,1.97,5.36,5.98-.2,2.47-.06,4.98-.02,7.47.09,5.9,2.65,9.64,6.61,9.71,3.99.07,6.72-3.69,6.82-9.5.06-3.11.09-6.23.01-9.34-.07-2.6.86-3.97,3.66-4.29,6.48-.74,12.95-1.63,19.23-3.53,19.91-6.03,33.81-17.71,36.45-39.53,2.23-18.42-3.25-36.96-21.99-47.1-10.26-5.55-21.23-8.76-32.48-11.25-3.01-.67-4.99-1.64-4.93-5.41.2-12.6.15-25.21.03-37.81-.04-3.92,1.61-4.74,5.19-4.19,9.06,1.4,15.56,6.63,21.13,13.44,2.75,3.36,5.16,7.02,8.75,9.65,4.66,3.42,9.54,3.37,14.53.98,4.99-2.39,7.32-6.58,7.41-12,.18-10.38-5.84-17.1-13.85-22.31-11.68-7.6-24.58-11.94-38.47-13.04-3.62-.29-4.92-1.81-4.69-5.3.18-2.79.15-5.61-.07-8.4-.37-4.54-3.31-7.89-6.75-7.57-4.31.41-6.05,3.5-6.47,7.37-.28,2.62-.35,5.31-.08,7.92.47,4.57-1.62,5.76-5.88,6.09-12.65.98-24.31,4.93-34.46,12.82-21.17,16.44-24.45,54.81,2.54,71.1,10.3,6.22,21.27,10.21,32.92,12.56,3.49.71,5.04,2.18,4.91,5.91-.24,6.68-.07,13.38-.08,20.07Z"/>
  <path class="cls-1" d="m0,116.41C.17,61.41,38.28,14.54,92.54,2.59c60-13.21,122.27,25.41,137,84.86.78,3.14.45,5.61-1.32,8.3-12,18.2-19.77,38.04-22.27,59.76-.57,4.99-2.7,6.96-7.58,7.97-41.02,8.45-74.65,29.16-101,61.68-4.91,6.05-4.87,6.09-12.46,3.99C40.35,216.85,6.43,177.46.83,131.76c-.63-5.13-.72-10.22-.83-15.35Zm88.96,20.88s0,.1,0,.15c-3.42,0-6.86-.23-10.26.05-5.1.42-8.2,3.47-7.96,7.38.25,4.07,3.39,6.6,8.61,6.69,5.76.1,11.53.28,17.27-.05,4.46-.26,5.72,1.62,5.58,5.72-.18,5.28-.17,10.59.12,15.87.44,7.95,6.1,12.92,14.3,12.9,8.21-.02,13.81-4.99,14.24-12.96.28-5.12.37-10.28.1-15.4-.25-4.66,1.36-6.41,6.14-6.13,6.05.35,12.14.23,18.2-.04,4.04-.17,6.88-2.49,7.06-6.68.18-3.97-2.26-6.31-6.14-6.98-1.67-.29-3.39-.43-5.09-.45-5.29-.06-10.58-.04-15.87-.03-1.98,0-3.71-.15-4.1-2.71-.67-4.35,3.1-9.09,7.52-9.15,5.13-.07,10.27.06,15.41-.06,5.11-.12,8.29-2.86,8.37-6.94.06-3.75-2.9-6.59-7.78-7.11-2.62-.28-5.28-.16-7.93-.22-2.19-.05-2.82-1.08-1.76-2.97,1.3-2.3,2.7-4.55,4.07-6.81,6.82-11.33,13.91-22.51,20.36-34.05,4.4-7.87.63-15.98-7.82-18.5-8.29-2.47-14.34-.27-18.49,7.39-8.08,14.91-15.88,29.97-23.82,44.96-.7,1.32-1.05,3.46-2.76,3.39-1.63-.07-2-2.18-2.71-3.52-6.47-12.24-12.87-24.52-19.37-36.75-2.04-3.84-4.01-7.78-6.55-11.28-3.93-5.4-11.18-6.57-18.19-3.45-5.85,2.61-8.37,7.16-7.49,13.52.46,3.35,2.3,6.09,3.98,8.87,7,11.59,14.1,23.12,21.1,34.7,2.33,3.85,1.99,4.39-2.41,4.54-2.33.08-4.69-.05-6.99.27-4.57.64-7.32,3.51-7.18,7.14.16,3.94,3.21,6.66,8.01,6.8,5.13.15,10.27.02,15.41.07,4.56.05,8.01,3.74,7.92,8.33-.04,2.2-.85,3.56-3.29,3.53-3.27-.05-6.54-.01-9.8-.01Z"/>
  <path class="cls-1" d="m465.77,184.22c-1.58,36.71-22.06,71.21-62.15,93.86-4.7,2.66-5.02,2.45-6.88-2.59-3.29-8.92-7.09-17.6-11.84-25.86-3.09-5.37-3.02-5.42,2.95-6.6,8.37-1.65,13.65-7.07,13.8-14.16.18-8.74-5.15-13.53-13.68-11.92-8.05,1.52-16,2.04-24.03-.14-2.05-.56-3.71-1.37-5.2-2.84-4.43-4.38-8.86-8.75-13.43-12.97-1.62-1.49-1.98-2.96-1.41-4.97.42-1.48.72-3.03.82-4.56.46-7.1.43-7.09,7.79-7.1,3.11,0,6.23.06,9.34-.11,5.87-.33,8.87-3.03,9.06-7.94.21-5.44-2.33-8.54-8.43-8.99-6.35-.47-12.76-.37-19.13-.19-3.46.1-5.36-1.2-6.82-4.29-2.75-5.85-5.09-11.68-4.07-18.35.49-3.17,1.78-5.9,3.62-8.48,6.94-9.69,31.65-12.78,38.43,3.47,1.81,4.33,3.29,9.34,8.56,11.08,5.1,1.68,9.92.91,13.96-2.69,4.73-4.21,4.51-9.76,3.04-15.15-2.44-8.96-8.51-15.4-16.59-19.26-21.24-10.14-42.65-11.31-63.11,1.92-15.69,10.15-20.93,30.08-12.89,47.03,1.89,3.99.97,4.99-3.01,4.73-1.78-.12-3.61.42-4.69,1.74-2.34,2.87-4.76,2.47-7.83,1.31-17.17-6.53-35.07-9.54-53.34-10.4-4.14-.2-4.98-1.53-4.21-5.37,7.84-39.15,29.61-67.87,65.5-85.04,44.54-21.31,96.99-11.66,131.94,23.23,21.63,21.59,33.86,51.32,33.92,91.62Z"/>
  <path class="cls-1" d="m240.09,371.01c0-6.68,0-13.35,0-20.03,0-2.19.14-4.19,3.31-3.43,6.82,1.64,13.55,3.49,19.22,7.9,10.26,7.97,10.65,23.24.78,31.67-5.37,4.58-11.79,6.73-18.65,7.79-3.43.53-4.79-.86-4.71-4.34.16-6.52.05-13.04.05-19.56Z"/>
  <path class="cls-1" d="m226.61,291.69c0,5.75-.12,11.5.05,17.24.1,3.36-1.05,4.61-4.38,3.67-5.86-1.64-11.6-3.52-16.46-7.38-8.13-6.47-9.36-18.27-2.62-26.14,5.27-6.16,12.43-8.5,20.17-9.45,2.96-.36,3.23,1.68,3.23,3.87,0,6.06,0,12.12,0,18.17Z"/>
</svg>